<svg xmlns="http://www.w3.org/2000/svg" width="127.062" height="61" viewBox="0 0 127.062 61">
  <defs>
    <style>
      .cls-1 {
        fill: #222b33;
        fill-rule: evenodd;
      }
    </style>
  </defs>
  <path id="Shape_128_copy_3.svg" data-name="Shape 128 copy 3.svg" class="cls-1" d="M828.864,496a14.276,14.276,0,0,1,12.818,3.925S829.687,501.252,828.864,496Zm1.957-26.214s-3.9-6.286.023-11.785C830.844,458,834.046,462.913,830.821,469.785Zm-1.54,5.133S824.69,472.682,824.9,464C824.9,464,830.926,466.586,829.281,474.918Zm4.3-7.391s1.578-7.066,8.153-7.528a11.242,11.242,0,0,1-8.153,7.53v0Zm-2.59,15.633s-6.865-3.833-6.087-10.16A10.422,10.422,0,0,1,830.991,483.16Zm-0.389-4.631A14.4,14.4,0,0,1,834.8,468S837.7,475.907,830.6,478.529Zm4.315,12.635s-4.155-7.25-1.1-13.165C833.814,478,839.358,485.48,834.917,491.164Zm9.568,8.936s-8.052-5.689-6.711-12.1A14.18,14.18,0,0,1,844.485,500.1Zm1.209-5.1s11.25,2.811,9.869,10.141C855.563,505.14,843.621,499.427,845.694,495Zm-22.77-14a14.132,14.132,0,0,0,9.239,6.928A10.774,10.774,0,0,0,822.924,481Zm3.96,8s6.8-1.413,11.242,6.689C838.126,495.688,835.044,497.628,826.884,489Zm22.873,12.974s-4.716,4.4-13.963,1.026C835.794,503,845.135,498.312,849.757,501.973Zm5.539,3.257s-6.434,4.511-12.433,1.843C842.86,507.073,848.2,501.2,855.3,505.23ZM850.643,512c-0.236-4.407,5.357-5.452,5.357-5.452C856.484,510.728,850.643,512,850.643,512Zm-16.852-48.215a10.6,10.6,0,0,1,2-11.785S838.566,457.261,833.791,463.784Zm2.947-3.423s0.53-5.851,6.975-9.361c0,0,1.654,5.526-6.975,9.361M944.09,496a14.211,14.211,0,0,0-12.782,3.925S943.269,501.252,944.09,496Zm-1.951-26.214s3.892-6.286-.023-11.785C942.116,458,938.923,462.913,942.139,469.785Zm1.535,5.133s4.578-2.236,4.365-10.918C948.039,464,942.034,466.586,943.674,474.918Zm-4.288-7.391s-1.573-7.066-8.129-7.528a11.221,11.221,0,0,0,8.129,7.53v0Zm2.583,15.633s6.846-3.833,6.07-10.16A10.426,10.426,0,0,0,941.969,483.16Zm0.388-4.631A14.417,14.417,0,0,0,938.167,468S935.275,475.907,942.357,478.529Zm-4.3,12.635s4.144-7.25,1.1-13.165C939.154,478,933.626,485.48,938.054,491.164Zm-9.54,8.936s8.028-5.689,6.692-12.1A14.187,14.187,0,0,0,928.514,500.1Zm-1.206-5.1s-11.218,2.811-9.841,10.141C917.467,505.14,929.374,499.427,927.308,495Zm22.706-14a14.1,14.1,0,0,1-9.214,6.928A10.749,10.749,0,0,1,950.014,481Zm-3.949,8s-6.786-1.413-11.211,6.689C934.854,495.688,937.927,497.628,946.065,489Zm-22.809,12.974s4.7,4.4,13.924,1.026C937.18,503,927.865,498.312,923.256,501.973Zm-5.523,3.257s6.416,4.511,12.4,1.843C930.134,507.073,924.811,501.2,917.733,505.23ZM922.372,512c0.236-4.407-5.341-5.452-5.341-5.452C916.548,510.728,922.372,512,922.372,512Zm16.805-48.215a10.627,10.627,0,0,0-2-11.785S934.416,457.261,939.177,463.784Zm-2.939-3.423A12.9,12.9,0,0,0,929.283,451s-1.649,5.526,6.955,9.361" transform="translate(-822.938 -451)"/>
</svg>
