<svg xmlns="http://www.w3.org/2000/svg">
    <symbol id="logo" viewBox="0 0 230 70">
        <g>
            <path d="M173.7,58.2c0,0,1.2-3,2.3-5.1c1.1-2.1,1.7-2.8,1.7-2.8l-3.8,1c0,0,0.2-0.7,0.8-1.9
                c0.6-1.1,0.9-1.4,0.9-1.4s1.6-0.5,4.8-1s4.9-0.8,4.9-0.8s-0.4,0.8-0.8,1.7s-0.6,1.3-0.6,1.3l-3.1,0.5c0,0-1.4,1.9-2.3,4.3
                c-0.9,2.4-1.3,3.7-1.3,3.7s-1,0.4-2.1,0.6S173.7,58.2,173.7,58.2z"/>
            <path d="M186.4,46.4c0,0-1.6,2.6-2.8,5.2c-1.2,2.6-2.6,6-2.6,6s0.8,0.2,2.7,0c1.9-0.2,3-0.5,3-0.5l1.3-2.5
                c0,0-1,0.2-1.8,0.2c-0.8,0.1-1,0-1,0l1-2l2.2-0.3l1.3-2.3l-2.5,0.2l1-2l2.1-0.2l1.2-2.4c0,0-1.2,0-2.7,0.2S186.4,46.4,186.4,46.4z"
                />
            <path d="M197.4,45.1c-1.6,0.3-2.5,0.7-2.5,0.7s-1.2,1.4-3.2,4.5c-2,3.1-3.8,6.6-3.8,6.6s0.8-0.1,1.5-0.1
                c0.7-0.1,1.8-0.4,1.8-0.4s0.1-0.3,0.3-0.8c0.2-0.5,0.7-1.3,0.7-1.3s0.3-0.1,0.8-0.2c0.5-0.1,1.5-0.3,1.5-0.3l-1.1,3.1
                c0,0,0.9,0,1.8-0.3c0.9-0.3,1.6-0.7,1.6-0.7s0.6-2.5,1.4-5.2c0.8-2.7,2-6,2-6S199,44.7,197.4,45.1z M195.6,50.8L194,51l1.7-2.6
                l1.1-0.4L195.6,50.8z"/>
            <path d="M197.9,55.1c0,0,1.2-3.2,3.2-6.4s2.6-3.9,2.6-3.9s1-0.3,1.8-0.4c0.9-0.1,1.4-0.1,1.4-0.1s-0.4,1.2-0.7,2.7
                c-0.3,1.5-0.3,2.3-0.3,2.3s1-1.5,2.3-3.2s1.9-2.3,1.9-2.3s0.9-0.4,1.5-0.5c0.6-0.1,1.7,0,1.7,0s-1.8,4.2-2.9,7.1
                c-1.1,2.8-1.8,5-1.8,5s-0.7,0.5-1.7,0.7c-1,0.1-1.6,0-1.6,0s0.9-2.1,1.2-3.1c0.3-0.9,0.4-1.2,0.4-1.2s-1.9,2.1-2.9,3
                c-1,0.9-1.4,1.1-1.4,1.1l0.3-4.6c0,0-0.8,1.1-1.3,2.2c-0.6,1.1-0.8,1.6-0.8,1.6s-1.1,0.2-1.8,0.2S197.9,55.1,197.9,55.1z"/>
        </g>
        <g>
            <g>
                <g>
                    <polygon fill="#1D1D1B" points="87.3,32.3 83.8,32.8 86.4,23.9 109.5,21 107,29.9 96.5,31.2 95.6,34 103.9,33 102.2,39
                        93.8,40.1 92.6,44 106.5,42.3 103.9,51.2 80.6,54 			"/>
                    <path fill="#1D1D1B" d="M108.8,21.7l-2.2,7.7l-10.5,1.3l-1.2,4l8.3-1l-1.4,4.8l-8.4,1l-1.6,5.1l13.9-1.7l-2.2,7.7l-22.1,2.7
                        L88,31.7l-3.4,0.4l2.2-7.7L108.8,21.7 M110.3,20.4l-1.7,0.2l-22,2.7l-0.7,0.1l-0.2,0.7l-2.2,7.7l-0.5,1.6l1.7-0.2l1.7-0.2
                        l-6.1,20l-0.5,1.6l1.7-0.2l22.1-2.7l0.7-0.1l0.2-0.7l2.2-7.7l0.5-1.6l-1.7,0.2l-12.2,1.5l0.8-2.8l7.7-0.9l0.7-0.1l0.2-0.7
                        l1.4-4.8l0.5-1.6l-1.7,0.2l-6.6,0.8l0.5-1.7l9.7-1.2l0.7-0.1l0.2-0.7l2.2-7.7L110.3,20.4L110.3,20.4z"/>
                </g>
                <g>
                    <polygon fill="#1D1D1B" points="181,11.3 191.9,10 184.9,32.8 193.2,31.8 190.3,41.2 172.9,43.4 171.2,43.6 			"/>
                    <path fill="#1D1D1B" d="M191.1,10.6l-7,22.8l8.3-1l-2.5,8.3l-17.1,2.1l-0.8,0.1l9.5-31.1L191.1,10.6 M192.7,9.3L191,9.5l-9.6,1.2
                        l-0.7,0.1l-0.2,0.7l-9.5,31.1l-0.5,1.6l1.7-0.2l0.8-0.1l17.1-2.1l0.7-0.1L191,41l2.5-8.3l0.5-1.6l-1.7,0.2l-6.6,0.8l6.5-21.2
                        L192.7,9.3L192.7,9.3z"/>
                </g>
                <g>
                    <polygon fill="#1D1D1B" points="195.3,33.5 195.9,31.7 195.9,31.7 200.1,17.9 196.5,18.4 199.1,8.9 223.8,5.9 221.1,15.4
                        209.9,16.7 209,19.8 217.8,18.8 216,25.1 207,26.2 205.7,30.5 220.6,28.7 217.9,38.1 193.2,41.1 193.2,41.1 193,41.1 			"/>
                    <path fill="#1D1D1B" d="M223.1,6.6l-2.4,8.3l-11.2,1.4l-1.3,4.3l8.9-1.1l-1.5,5.2l-9,1.1l-1.7,5.4l14.9-1.8l-2.4,8.3l-15.1,1.8v0
                        l0,0l-8.4,1l0,0l-0.2,0l2.1-6.8l0.4-1.5l0,0l4.6-14.9l-3.7,0.5l2.3-8.3L223.1,6.6 M224.6,5.3l-1.7,0.2l-23.5,2.8l-0.7,0.1
                        l-0.2,0.7l-2.3,8.3l-0.5,1.6l1.7-0.2l2-0.2l-3.8,12.6l0,0l-0.2,0.7l-0.4,1.5l-2.1,6.7l-0.5,1.6l0.2,0l0,0l1.7-0.2l8.4-1l15.1-1.8
                        l0.7-0.1l0.2-0.7l2.4-8.3l0.5-1.6l-1.7,0.2l-13.2,1.6l1-3.1l8.3-1l0.7-0.1l0.2-0.7l1.5-5.2l0.5-1.6l-1.7,0.2l-7.2,0.9l0.6-2
                        l10.5-1.3l0.7-0.1l0.2-0.7l2.4-8.3L224.6,5.3L224.6,5.3z"/>
                </g>
                <g>
                    <path fill="#1D1D1B" d="M55.1,36.4l-7.6,1l2.5-8.9l20.6-2.6c4,0,7.1,1.5,9,4.2c0.7,1,1.3,2.2,1.6,3.6c1.1,4.2-0.9,8.8-5.2,11.7
                        c-2.8,2.1-7,3.6-11.9,4.2c-1,0.1-2.1,0.2-3.2,0.2c-0.3,0-0.6,0-1,0l-2.1,6.8l-9.2,1L55.1,36.4z M63,41c1.1,0,2.5-0.2,4.3-0.7
                        c1.9-0.5,3.5-1.3,4.7-2.4c1-0.9,1.5-1.9,1.3-2.7c-0.3-1.2-1.8-1.8-4.1-1.8c-1,0-2.2,0.1-3.5,0.4c-0.3,0.1-0.6,0.1-0.9,0.2l-2.1,7
                        C62.7,41,62.8,41,63,41z"/>
                    <path fill="#1D1D1B" d="M70.7,26.4c3.5,0,6.5,1.3,8.4,4c0.7,0.9,1.2,2.1,1.5,3.4c1.1,4.1-1,8.4-5,11.1c-3,2.3-7.4,3.6-11.7,4.1
                        c-1,0.1-2.1,0.2-3.1,0.2c-0.5,0-0.9,0-1.4,0L57.4,56l-8,0.9l6.5-21.2l-7.6,1l2.2-7.7L70.7,26.4 M63,41.6c1.3,0,2.8-0.3,4.4-0.7
                        c4.1-1.1,6.9-3.7,6.3-5.8c-0.4-1.5-2.2-2.3-4.7-2.3c-1.1,0-2.3,0.1-3.6,0.4c-0.4,0.1-0.8,0.2-1.2,0.3l-2.4,8
                        C62.2,41.5,62.6,41.6,63,41.6 M70.6,25.3L70.6,25.3l-20.3,2.6l-0.7,0.1l-0.2,0.7l-2.2,7.7L46.7,38l1.7-0.2l5.9-0.7l-6,19.5
                        l-0.5,1.6l1.7-0.2l8-0.9l0.7-0.1l0.2-0.7l1.9-6.1c0.2,0,0.4,0,0.6,0c1.1,0,2.2-0.1,3.2-0.2c3.5-0.4,8.5-1.6,12.2-4.3
                        c4.4-3,6.6-7.8,5.4-12.3c-0.4-1.4-1-2.7-1.7-3.8C78,26.8,74.8,25.3,70.6,25.3L70.6,25.3L70.6,25.3z M65.1,34.4
                        c0.2,0,0.4-0.1,0.6-0.1c1.2-0.3,2.3-0.4,3.3-0.4c2,0,3.4,0.5,3.6,1.4c0.2,0.6-0.3,1.4-1.1,2.2c-1.1,1-2.7,1.8-4.4,2.2
                        c-1.5,0.4-2.8,0.6-3.8,0.7L65.1,34.4L65.1,34.4z"/>
                </g>
                <g>
                    <path fill="#1D1D1B" d="M146.8,25.3l-8,1l2.6-9.4l21.8-2.7c4.2,0,7.5,1.6,9.4,4.4c0.8,1.1,1.3,2.3,1.7,3.8
                        c1.2,4.4-1,9.3-5.5,12.3c-2.9,2.2-7.4,3.8-12.6,4.4c-1.1,0.1-2.2,0.2-3.4,0.2c-0.3,0-0.7,0-1,0l-2.2,7.2l-9.7,1L146.8,25.3z
                         M154.6,30.3c0.2,0,0.3,0,0.5,0c1.2,0,2.7-0.2,4.5-0.7c3.9-1,6.8-3.5,6.3-5.4c-0.3-1.3-1.9-2-4.4-2c-1.1,0-2.3,0.1-3.7,0.4
                        c-0.3,0.1-0.6,0.1-0.9,0.2L154.6,30.3z"/>
                    <path fill="#1D1D1B" d="M163.3,14.7c3.7,0,6.9,1.4,8.9,4.2c0.7,1,1.3,2.2,1.6,3.6c1.1,4.3-1.1,8.9-5.3,11.7
                        c-3.2,2.4-7.8,3.8-12.4,4.3c-1.1,0.1-2.2,0.2-3.3,0.2c-0.5,0-1,0-1.4,0l-2.2,7.3l-8.5,0.9l6.9-22.4l-8,1l2.3-8.2l8.2-1
                        L163.3,14.7 M155.1,30.8c1.4,0,3-0.3,4.7-0.7c4.3-1.1,7.3-3.9,6.7-6.1c-0.4-1.6-2.3-2.4-5-2.4c-1.1,0-2.4,0.1-3.8,0.4
                        c-0.4,0.1-0.9,0.2-1.3,0.3l-2.6,8.4C154.3,30.8,154.7,30.8,155.1,30.8 M163.2,13.6L163.2,13.6L150,15.3l-8.2,1l-0.7,0.1l-0.2,0.7
                        l-2.3,8.2L138,27l1.7-0.2l6.3-0.8l-6.4,20.8l-0.5,1.6l1.7-0.2l8.5-0.9l0.7-0.1l0.2-0.7l2-6.5c0.2,0,0.4,0,0.6,0
                        c1.1,0,2.3-0.1,3.4-0.2c3.7-0.5,9-1.7,12.9-4.6c4.7-3.2,6.9-8.2,5.7-12.9c-0.4-1.5-1-2.8-1.8-4C171,15.3,167.6,13.7,163.2,13.6
                        L163.2,13.6L163.2,13.6z M157.4,23.2c0.2-0.1,0.4-0.1,0.6-0.1c1.3-0.3,2.5-0.4,3.5-0.4c2.2,0,3.6,0.6,3.9,1.6
                        c0.2,0.7-0.3,1.5-1.2,2.4c-1.1,1-2.8,1.9-4.7,2.4c-1.7,0.4-3,0.7-4.1,0.7L157.4,23.2L157.4,23.2z"/>
                </g>
                <g>
                    <path fill="#1D1D1B" d="M123.8,49.3c-5,0-9.4-1.8-11.7-4.9c-5-6.5-3.3-16.2,3.6-21.7c3-2.4,6.8-3.7,10.5-3.7
                        c4.6,0,8.7,2,11.4,5.4c5,6.4,3.4,15.9-3.6,21.7C131.5,48.1,127.8,49.3,123.8,49.3L123.8,49.3z M126.2,28.2
                        c-1.6,0-3.1,0.5-4.4,1.5c-3,2.4-4,6-2.2,8.4c0.7,0.9,2.1,1.5,3.8,1.5c1.8,0,3.6-0.6,4.8-1.6c2.8-2.3,3.7-6,2-8.2
                        C129.5,28.8,127.9,28.2,126.2,28.2z"/>
                    <path fill="#1D1D1B" d="M126.2,19.6c4.2,0,8.3,1.8,11,5.2c4.9,6.2,3.2,15.4-3.5,20.9c-2.5,2-6.1,3.1-9.8,3.1
                        c-4.4,0-8.9-1.5-11.3-4.7c-4.8-6.3-3.3-15.6,3.5-20.9C119.1,20.7,122.7,19.6,126.2,19.6 M123.4,40.2c1.8,0,3.8-0.6,5.1-1.7
                        c3.1-2.5,3.9-6.6,2.1-9c-0.9-1.1-2.6-1.8-4.4-1.8c-1.6,0-3.3,0.5-4.7,1.6c-3.2,2.5-4.3,6.5-2.3,9.2
                        C120.1,39.6,121.7,40.2,123.4,40.2 M126.2,18.5c-3.8,0-7.7,1.4-10.8,3.8c-7.2,5.6-8.8,15.7-3.7,22.4c2.4,3.2,7,5.1,12.2,5.1
                        c4.1,0,7.9-1.2,10.5-3.4c7.2-6,8.8-15.8,3.7-22.4C135.2,20.5,130.9,18.5,126.2,18.5L126.2,18.5z M123.4,39.1
                        c-1.5,0-2.7-0.5-3.3-1.3c-1.6-2.1-0.7-5.5,2.1-7.6c1.1-0.9,2.6-1.4,4-1.4c1.5,0,2.9,0.5,3.6,1.4c1.5,2,0.7,5.3-1.9,7.4
                        C126.8,38.5,125.1,39.1,123.4,39.1L123.4,39.1z"/>
                </g>
                <g>
                    <path fill="#1D1D1B" d="M22,68c-7.3,0-13.7-2.7-17.2-7.2c-7.2-9.5-4.9-23.7,5.3-31.7c4.4-3.5,9.9-5.4,15.3-5.4
                        c6.7,0,12.8,2.9,16.7,7.9c0.5,0.6,1,1.4,1.5,2.2l0.3,0.6l-12.8,4.4l-0.2-0.2c-1.3-1.1-3.3-1.7-5.4-1.7c-2.4,0-4.8,0.8-6.6,2.3
                        c-4.6,3.6-6,9.2-3.3,12.8c1.1,1.5,3.2,2.3,5.8,2.3c2.7,0,5.4-0.9,7.2-2.4c0.7-0.5,1.3-1.2,1.9-1.9l0.2-0.2l14.7,0.9l-0.2,0.7
                        c-1.5,4.6-4.4,8.8-8.3,12C33.2,66.3,27.8,68,22,68z"/>
                    <path fill="#1D1D1B" d="M25.4,24.3c6.3,0,12.3,2.6,16.3,7.6c0.5,0.7,1,1.4,1.5,2.2l-11.9,4c-1.4-1.2-3.5-1.9-5.8-1.9
                        c-2.3,0-4.8,0.7-7,2.4c-4.7,3.7-6.4,9.6-3.4,13.6c1.3,1.7,3.7,2.5,6.2,2.5c2.7,0,5.6-0.9,7.6-2.5c0.7-0.6,1.4-1.3,1.9-2l13.7,0.8
                        c-1.4,4.4-4.2,8.5-8.1,11.7c-3.7,3-9.1,4.6-14.5,4.6c-6.6,0-13.2-2.3-16.7-6.9c-7.1-9.3-4.9-23,5.2-30.9
                        C14.9,26,20.3,24.3,25.4,24.3 M25.4,23.2c-5.6,0-11.1,2-15.7,5.5c-5.1,4-8.4,9.5-9.4,15.6c-1,6.1,0.4,12.1,4.1,16.8
                        c3.5,4.6,10.1,7.4,17.6,7.4c6,0,11.5-1.8,15.2-4.8c4-3.3,6.9-7.5,8.5-12.2l0.5-1.4L44.7,50L31,49.2l-0.6,0L30,49.6
                        c-0.5,0.7-1.1,1.3-1.8,1.8c-1.7,1.4-4.3,2.3-6.9,2.3c-2.4,0-4.3-0.8-5.3-2.1c-2.5-3.3-1.1-8.6,3.2-12c1.8-1.4,4-2.1,6.3-2.1
                        c2,0,3.9,0.6,5.1,1.6l0.5,0.4l0.6-0.2l11.9-4l1.3-0.4l-0.7-1.2c-0.5-0.9-1-1.6-1.5-2.3C38.5,26.1,32.3,23.2,25.4,23.2L25.4,23.2z
                        "/>
                </g>
            </g>
            <polygon fill="#F6B238" points="185.5,6.4 196.9,5 189.9,27.8 198.2,26.8 195.1,36.9 177.5,39 175.4,39.3 	"/>
            <polygon fill="#F6B238" points="199.7,28.8 200.3,26.8 200.3,26.8 204.4,13.6 200.7,14.1 203.5,4 228.9,1 226,11 214.8,12.4
                214,14.9 222.9,13.8 220.9,20.7 211.9,21.8 210.7,25.5 225.6,23.7 222.7,33.7 197.4,36.8 197.5,36.8 197.3,36.8 	"/>
            <path fill="#F6B238" d="M59.3,32.1l-7.6,1l2.7-9.5l20.8-2.6l0.1,0c4,0.1,7.2,1.5,9.1,4.3c0.7,1,1.3,2.3,1.7,3.7c1.1,4.3-1,9-5.4,12
                c-3.6,2.7-8.5,3.8-12,4.2c-1.1,0.1-2.1,0.2-3.2,0.2c-0.3,0-0.5,0-0.8,0l-2.1,6.8l-9.8,1.1L59.3,32.1z M67.6,36.1
                c1.1,0,2.5-0.2,4.2-0.7c1.8-0.5,3.5-1.3,4.6-2.3c0.9-0.9,1.4-1.8,1.2-2.5c-0.3-1-1.7-1.6-3.9-1.6c-1,0-2.2,0.1-3.4,0.4
                c-0.2,0-0.5,0.1-0.7,0.2L67.6,36.1C67.6,36.1,67.6,36.1,67.6,36.1z"/>
            <path fill="#F6B238" d="M151,21l-8,1l2.8-9.9l22-2.8l0.1,0c4.2,0.1,7.6,1.6,9.6,4.6c0.8,1.1,1.4,2.4,1.8,3.9
                c1.2,4.5-1,9.5-5.6,12.6c-3.8,2.8-9,4-12.7,4.5c-1.1,0.1-2.3,0.2-3.4,0.2c-0.3,0-0.6,0-0.8,0l-2.2,7.2l-10.3,1.1L151,21z
                 M159.7,25.4c1.2,0,2.6-0.2,4.4-0.7c2-0.5,3.7-1.4,4.9-2.5c1-0.9,1.5-1.9,1.3-2.6c-0.3-1.1-1.8-1.8-4.2-1.8c-1.1,0-2.3,0.1-3.6,0.4
                c-0.2,0.1-0.5,0.1-0.8,0.2L159.7,25.4C159.7,25.4,159.7,25.4,159.7,25.4z"/>
            <path fill="#F6B238" d="M128.5,44.9c-5.1,0-9.6-1.9-12-5c-5-6.6-3.4-16.5,3.6-22.1c3.1-2.4,6.9-3.7,10.6-3.7c4.7,0,8.9,2,11.6,5.5
                c5.1,6.5,3.5,16.2-3.6,22.1C136.3,43.7,132.5,44.9,128.5,44.9L128.5,44.9z M130.9,23.9c-1.5,0-3,0.5-4.2,1.4
                c-2.9,2.3-3.8,5.8-2.1,8c0.7,0.9,2,1.4,3.5,1.4c1.7,0,3.5-0.6,4.6-1.5c2.7-2.2,3.6-5.7,2-7.8C133.9,24.5,132.5,23.9,130.9,23.9z"/>
            <path fill="#F6B238" d="M26.6,63.6c-7.4,0-13.9-2.7-17.4-7.3c-7.3-9.6-4.9-24,5.3-32.1c4.5-3.5,10-5.5,15.5-5.5
                c6.8,0,12.9,2.9,16.9,8c0.5,0.7,1,1.4,1.5,2.3l0.5,0.9l-13.3,4.5l-0.4-0.3c-1.3-1.1-3.2-1.7-5.2-1.7c-2.3,0-4.6,0.8-6.4,2.2
                c-4.4,3.5-5.9,8.9-3.2,12.4c1.1,1.4,3.1,2.2,5.6,2.2c2.6,0,5.3-0.9,7.1-2.3c0.7-0.5,1.3-1.2,1.8-1.9l0.3-0.3l15.2,0.9l-0.3,1
                c-1.5,4.7-4.4,8.9-8.4,12.1C38,61.9,32.5,63.6,26.6,63.6z"/>
            <polygon fill="#1D1D1B" points="150,47.1 155.1,43 150.7,42.9 	"/>
            <polygon fill="#1D1D1B" points="141,16.4 145.2,11.3 144.3,16.6 141.9,16.9 	"/>
            <path fill="#CE8421" d="M133.6,25.4c0.7,0.8,1.7,1.6,2.1,2.6c0.1-0.1,0.2-0.3,0.2-0.6c-0.1-9.1-16.3-4.8-12.6,3.9c0,0,0,0,0,0
                c0.1-2.7,1.3-5.4,3.8-6.7c2-1,4.7-1,6.2,0.5C133.4,25.2,133.5,25.3,133.6,25.4z"/>
            <path fill="#FFFFFF" d="M135.4,15.2c-5.2-0.8-9.6-0.6-14.1,2.2c-4.2,2.6-7.7,7.1-7.1,12.2c0,0,0,0,0,0c1.4-9.2,12.1-15.7,21.1-14.1
                C135.5,15.6,135.6,15.2,135.4,15.2z"/>
            <path fill="#FFFFFF" d="M136.1,26.8C136,26.8,136,26.8,136.1,26.8c-0.1,2.6-0.6,4.4-2.7,6.2c-2.1,1.8-4.8,2.2-7.4,1.7
                c-0.3-0.1-0.5,0.4-0.2,0.5c2.7,1.8,6.7,0.6,8.9-1.5c1.2-1.1,2-2.2,2.1-3.9C136.8,28.8,137,27.4,136.1,26.8z"/>
            <path fill="#CE8421" d="M178.6,17.5c0-0.1-0.2-0.1-0.2,0C178,26,171.3,29,164.3,31.2c0,0-0.1,0-0.1,0c-2.1,0.7-4.2,1.3-6.3,1.7
                c-0.3,0-0.6,0.1-0.9,0.2c-0.4,0.1-0.7,0.1-1.1,0.2c0,0,0,0,0,0c-0.2,0-0.4,0-0.6,0.1c-0.3,0.8-0.7,1.6-1,2.4
                c-0.6,1.7-1.4,3.4-1.9,5.1c0,0,0,0,0,0c0-0.1,0-0.1,0-0.2c0,0.1-0.1,0.3-0.1,0.4c-2.4,0.2-4.8,0.3-6.9,1.4c0,0,0,0.1,0,0.1
                c2.5,0.9,5.4,0.4,8,0.3c0.4,0,0.8-0.3,0.9-0.7c0.5-1.8,1.1-5.7,2.6-6.7c0,0,0,0,0.1,0c5.7-0.2,10.9-1.6,15.8-4.6
                c0.5-0.3,0.5-0.8,0.4-1.2C177.8,26.9,180.9,23.1,178.6,17.5z"/>
            <path fill="#CE8421" d="M143.8,21.8c-0.1-0.1-0.2-0.1-0.2-0.3c-0.2-0.3-0.3-0.6-0.5-0.8c-0.1-0.2-0.1-0.5,0-0.7c0,0,0,0,0,0
                c0-0.1,0-0.1-0.1-0.2c-0.2-0.3-0.3-0.6-0.5-0.9c-0.2-0.3-0.8-0.1-0.7,0.3c2,6.1,0,14.8-4.7,19.2c-5.2,4.9-13.4,4.5-19.5,1.4
                c0,0-0.1,0-0.1,0.1c1.3,3.1,6.3,4.2,9.2,4.5c2,0.3,4,0.1,5.9-0.5c1.3-0.2,2.5-0.4,3.5-0.9c2.1-0.9,3.8-2.9,5.1-4.7
                c2-2.7,4.9-7.6,3.3-11.1C144.7,25.4,144.4,23.5,143.8,21.8z"/>
            <path fill="#CE8421" d="M170.7,18.9c-2-2.8-5.4-2.8-8.5-2.1c-2,0.5-1.9,0.5-2.3,2.5c-0.5,2.2-1,4.4-1.3,6.7c0,0,0,0,0,0
                c0.5-1,0.9-2.1,1.2-3.2c0.4-1.3,0.5-3.6,1.4-4.4c1.1-1,3.8-1,5.2-0.8c1.4,0.2,2.9,0.7,4.1,1.5C170.6,19.2,170.8,19.1,170.7,18.9z"
                />
            <path fill="#FFFFFF" d="M194.5,6c-2.2-0.4-4.7,0.1-6.9,0.4c-0.1,0-0.2,0-0.3,0c-0.4,0.1-0.7,0.1-1.1,0.1c-0.1,0-0.1,0-0.1,0
                c-0.1,0-0.2,0-0.4,0.1c-0.6,0.1-0.5,0.8-0.1,1c-0.8,4.2-3.4,8-3.6,12.3c0,0,0,0,0,0c1.4-4.1,3.7-8,4.5-12.2
                C189.2,7.4,192.1,7.2,194.5,6C194.5,6.1,194.5,6,194.5,6z"/>
            <path fill="#FFFFFF" d="M168,9c-4.3,1.2-8.8,1.9-13.2,2.4c-2.5,0.3-5,0.4-7.4,1.2c-0.1-0.3-0.6-0.5-0.8,0c0,0.1-0.1,0.3-0.1,0.4
                c-0.1,0.1-0.3,0.1-0.4,0.2c-0.1,0.1-0.1,0.3,0.1,0.3c0.1,0,0.1,0,0.2,0c-0.3,0.9-0.7,1.8-0.9,2.8c-0.4,1.2-0.5,2.5-0.9,3.8
                c0,0.1,0.1,0.1,0.1,0c0.6-2.2,1.7-4.4,2.6-6.5c0.1,0,0.2,0,0.3,0c2.7-0.1,5.5-0.8,8.2-1.3c0.3,0,0.6-0.1,0.8-0.1
                c0.3,0,0.5-0.1,0.8-0.1c3.7-0.5,7.4-1.1,11.1-2C168.8,9.8,168.6,8.8,168,9z"/>
            <polygon fill="#F6B238" points="91.5,28 88.1,28.5 90.8,19 114.5,16.1 111.8,25.5 101.3,26.8 100.6,29.1 108.9,28.1 107,34.6
                98.6,35.7 97.6,39 111.5,37.3 108.8,46.8 84.9,49.7 	"/>
            <path fill="#FFFFFF" d="M34.4,18.9C22.9,16.7,7.1,26.3,6,38.6c0,0,0,0,0,0c4-10.8,15.9-20.7,28.1-18.7C34.7,20,35,19,34.4,18.9z"/>
            <path fill="#FFFFFF" d="M44.8,46c-2.2-0.3-4.3-0.4-6.5-0.6c-0.7,0-1.5-0.2-2.3-0.1c0,0,0-0.1,0-0.1c0.2-0.6-0.8-1.1-1.1-0.5
                c-2,4.3-6.3,4.8-10.5,5.2c0,0,0,0,0,0c3.7,1.8,9.3,0.1,11.2-3.7c1,0.1,2.1,0,3,0c2,0,4.1,0,6.1-0.2C44.9,46.1,44.9,46,44.8,46z"/>
            <path fill="#CE8421" d="M47.9,46.4c-3.4,11.3-14.4,16.1-25.4,16.4c0,0,0,0,0,0.1c5,2.3,12,0.1,16.5-2.5c5.2-3,9-7.7,10.7-13.4
                C50,45.7,48.2,45.2,47.9,46.4z"/>
            <path fill="#CE8421" d="M47.1,28.1c-2.7,0.8-5.5,1.6-8.1,2.6c-1.2,0.4-2.3,0.8-3.5,1.3c0,0,0,0,0,0c-0.1,0-0.2,0-0.3,0.1
                c-3.3-3.1-8.4-2.4-12,0.3C20,34.8,15.8,40,18.8,44c0,0,0,0,0,0c0.2-2,0-3.9,1-5.7c0.9-1.7,2.3-3.1,3.8-4.2c3.4-2.6,8-3.2,11.4-0.2
                c0.5,0.4,1,0.1,1-0.4c3.7-1.6,7.7-2.2,11.4-3.7C48.4,29.3,48.1,27.8,47.1,28.1z"/>
            <path fill="#FFFFFF" d="M223.6,2.1c-6.3-0.5-13.1,0.9-19.3,1.7c-0.6,0.1-0.8,0.7-0.7,1.1c-0.8,2.7-1.9,5.3-1.9,8.2c0,0,0,0,0.1,0
                c1.3-2.5,1.9-5.3,3.2-7.8c6.1-0.7,12.8-1,18.6-2.8C223.7,2.3,223.7,2.1,223.6,2.1z"/>
            <path fill="#FFFFFF" d="M170.9,19.6c0-0.2-0.3-0.2-0.4,0c-0.9,5.1-7.5,5.6-11.5,6.4c0,0,0,0,0,0C162.8,27.1,172.4,25.2,170.9,19.6z
                "/>
            <polygon fill="#1D1D1B" points="50.2,30.4 44.7,34.7 42.8,32.6 	"/>
            <path fill="#1D1D1B" d="M36.6,64.2c0.2-0.2,6.5-5.5,6.5-5.5l-3,1.3L36.6,64.2z"/>
            <path fill="#1D1D1B" d="M5,33.6c0-0.1,6.6-7.7,6.6-7.7l-3.1,5.5L5,33.6z"/>
            <polygon fill="#1D1D1B" points="49.6,27.9 53.8,22.8 53,28.6 	"/>
            <path fill="#1D1D1B" d="M58.2,57c0.1-0.2,5-4.1,5-4.1l-3.7-0.3L58.2,57z"/>
            <polygon fill="#1D1D1B" points="109.4,47.5 104.4,51.7 104.1,47.4 	"/>
            <polygon fill="#1D1D1B" points="112.4,26.3 108.1,29.9 107.1,26.1 	"/>
            <polygon fill="#1D1D1B" points="107.7,35.4 103.3,39 102.3,35.2 	"/>
            <polygon fill="#1D1D1B" points="85.9,23.3 90.1,18.2 89.7,23.6 	"/>
            <polygon fill="#1D1D1B" points="134.4,46.5 139.7,42 136.9,42.9 	"/>
            <polygon fill="#1D1D1B" points="113.1,24.3 117.9,18.8 115.5,23.1 	"/>
            <polygon fill="#1D1D1B" points="180.6,10.8 184.8,5.7 184,11.2 	"/>
            <polygon fill="#1D1D1B" points="190.7,41.7 195.8,37.6 191.5,37.8 	"/>
            <path fill="#1D1D1B" d="M198.7,8.4c0.2-0.2,4.2-5.1,4.2-5.1l-0.6,5.3L198.7,8.4z"/>
            <polygon fill="#1D1D1B" points="218.3,38.6 223.4,34.5 218.9,34.5 	"/>
            <polygon fill="#1D1D1B" points="216.5,25.6 221.5,21.5 217.1,21.5 	"/>
            <polygon fill="#1D1D1B" points="221.6,15.9 226.6,11.7 222.2,11.7 	"/>
            <path fill="#CE8421" d="M197.4,27.5C197.4,27.5,197.3,27.4,197.4,27.5c-1.1,0.6-1.4,2-1.9,3.1c-0.6,1.4-1.3,2.7-2,4.1
                c-3,0.7-6,1.3-9,1.8c-2.7,0.5-5.6,0.5-8,1.9c0,0,0,0.1,0,0.1c2.7,0.8,5.6,0.2,8.4-0.2c3.2-0.4,6.5-1,9.7-1.6
                c0.6-0.1,0.8-0.6,0.8-1.1c0.6-1.3,1.2-2.7,1.6-4.1C197.3,30.2,197.8,28.8,197.4,27.5z"/>
            <path fill="#CE8421" d="M225,24.4c-1.1,0.8-1.4,1.6-1.9,2.9c-0.5,1.4-1.1,2.8-1.7,4.2c-4.1,0.8-8.1,1.5-12.2,2.4
                c-3.6,0.8-7.4,1.1-10.9,2.1c0,0,0,0.1,0,0.1c3.4,1,6.7,0.1,10.1-0.6c4.5-0.9,9-1.6,13.5-2.3c0.3,0.1,0.7,0,0.9-0.4
                C224,30.2,224.8,27.2,225,24.4C225,24.4,225,24.4,225,24.4z"/>
            <path fill="#CE8421" d="M221.7,14.7c-0.4,0.8-0.9,1.5-1.3,2.4c-0.3,0.7-0.6,1.4-0.9,2.1c-1.4,0.3-2.8,0.6-4.3,0.8
                c-1.3,0.2-2.6,0.3-3.8,0.9c0,0,0,0.1,0,0.1c2.5,0.7,5.8,0,8.4-0.3c0.4-0.1,0.6-0.3,0.7-0.6c0.1-0.1,0.2-0.2,0.2-0.3
                c0.3-0.8,0.5-1.6,0.7-2.5c0.2-0.9,0.3-1.7,0.4-2.6C221.9,14.7,221.7,14.6,221.7,14.7z"/>
            <path fill="#CE8421" d="M228.1,1.8C228.1,1.8,228.1,1.8,228.1,1.8c-1,0.6-1.2,1.7-1.5,2.7c-0.5,1.7-1.1,3.4-2,5
                c-3.4,0.6-6.9,0.9-10.1,2.1c-0.1,0-0.1,0.1,0,0.1c3.5,0.3,7.2-0.5,10.7-1c0.3,0,0.6-0.1,0.8-0.4c0.8-1.5,1.3-3,1.7-4.7
                C227.9,4.4,228.4,3,228.1,1.8z"/>
            <path fill="#FFFFFF" d="M106.9,17.8c-5-0.8-10.8,0.5-15.8,1.2c-0.6,0.1-0.6,0.8-0.2,1.2c-0.8,2.2-1.8,4.7-1.9,7c0,0,0,0,0,0
                c1.4-1.9,2.2-4.6,2.9-6.9C96.8,19.4,102.2,19.3,106.9,17.8C106.9,17.9,106.9,17.8,106.9,17.8z"/>
            <path fill="#CE8421" d="M85.6,26.8c0-0.4-0.7-0.4-0.6,0c1,9.3-5.9,13.1-13.3,15.5c-2.9,0.7-5.8,1-8.7,1.6c-0.1,0-0.2,0.1-0.3,0.3
                c-0.6,2.2-1.3,4.4-1.7,6.6c-2.4,0.4-4.8,0.7-7,1.5c-0.1,0-0.1,0.1,0,0.1c2.7,0.2,5.4-0.3,8.1-0.5c0.8-0.1,0.8-1,0.2-1.2
                c0.3-0.5,0.5-1.1,0.7-1.6c0.5-1.4,1-2.8,1.5-4.1c0,0,0-0.1,0-0.1c5.1,0.9,12.2-1.7,16.2-4.5c1.9-1.4,3.5-3.2,4.5-5.3
                C86.7,32,86,30,85.6,26.8z"/>
            <path fill="#FFFFFF" d="M70.3,22.2c-5,0.4-9.8,1-14.8,2c-0.2-0.2-0.6-0.2-0.7,0.1c0,0,0,0,0,0c-0.4,0.1-0.4,0.6-0.2,0.8
                c-0.5,2.1-1.2,4.1-1.6,6.3c0,0,0,0,0,0c1-2,1.6-4,2.3-6.1C60.3,24.3,65.3,23.3,70.3,22.2C70.4,22.3,70.4,22.2,70.3,22.2z"/>
            <path fill="#CE8421" d="M110.3,38.2c-1.5,1.8-2,4.3-2.8,6.6c-6.9,1-14.7,1.7-21.3,4.2c0,0,0,0.1,0,0.1c7.1,0.1,14.7-1.8,21.8-2.9
                c0.2,0,0.3-0.1,0.4-0.2c0.2,0,0.3-0.1,0.4-0.3c0.5-1.1,0.9-2.2,1.2-3.3c0.3-1.3,0.3-2.6,0.6-3.9C110.5,38.2,110.4,38.1,110.3,38.2z
                "/>
            <path fill="#CE8421" d="M107.6,29.3c-0.8,1.2-1.4,2.4-1.7,3.8c0,0.1,0,0.1,0,0.2c-2.5,0.5-5.2,0.7-7.6,1.6c0,0,0,0,0,0.1
                c2.6,0.4,5.5-0.3,8.1-0.7c0.3-0.1,0.4-0.3,0.3-0.6c0.1-0.1,0.2-0.1,0.2-0.3c0.5-1.3,0.7-2.7,0.9-4.1
                C107.8,29.2,107.7,29.2,107.6,29.3z"/>
            <path fill="#CE8421" d="M113.6,16.5C113.6,16.5,113.6,16.5,113.6,16.5c-1.5,2.1-2.3,4.7-3.1,7.2c-3.3,0.4-7.2,0.8-10,2.5
                c0,0,0,0,0,0c3.6,0.3,7.4-1,10.9-1.5c0.5-0.1,0.6-0.5,0.5-0.8C112.8,21.5,113.6,19,113.6,16.5z"/>
            <path fill="#FFFFFF" d="M78.2,30.3c-0.1-0.4-0.7-0.3-0.7,0.1c0.3,4.3-6,6-9.5,6.4c0,0,0,0,0,0C71.2,37.3,80,35.3,78.2,30.3z"/>
            <path fill="#1D1D1B" d="M113.4,17.1l-2.2,7.7l-10.5,1.3l-1.2,4l8.3-1l-1.4,4.8l-8.4,1L96.4,40l13.9-1.7l-2.2,7.7L86,48.7l6.6-21.7
                l-3.4,0.4l2.2-7.7L113.4,17.1 M115.7,15.1l-2.5,0.3l-22,2.7l-1.1,0.1l-0.3,1.1L87.6,27l-0.7,2.4l2.5-0.3l0.9-0.1l-5.9,19.2
                l-0.8,2.5l2.5-0.3l22.1-2.7l1.1-0.1l0.3-1.1l2.2-7.7l0.7-2.4l-2.5,0.3L98.8,38l0.5-1.6l7.3-0.9l1.1-0.1l0.3-1.1l1.4-4.8l0.7-2.4
                l-2.5,0.3l-5.8,0.7l0.2-0.5l9.4-1.2l1.1-0.1l0.3-1.1l2.2-7.7L115.7,15.1L115.7,15.1z"/>
            <path fill="#1D1D1B" d="M195.7,6l-7,22.8l8.3-1l-2.5,8.3l-17.1,2.1l-0.8,0.1l9.5-31.1L195.7,6 M198.1,4l-2.6,0.3l-9.6,1.2l-1.1,0.1
                l-0.3,1L175,37.8l-0.8,2.5l2.6-0.3l0.8-0.1l17.1-2.1l1.1-0.1l0.3-1l2.5-8.3l0.7-2.4l-2.5,0.3l-5.7,0.7l6.3-20.4L198.1,4L198.1,4z"
                />
            <path fill="#1D1D1B" d="M227.7,2l-2.4,8.3l-11.2,1.4l-1.3,4.3l8.9-1.1l-1.5,5.2l-9,1.1l-1.7,5.4l14.9-1.8l-2.4,8.3L207,34.8v0l0,0
                l-8.4,1l0,0l-0.2,0l2.1-6.8l0.4-1.5l0,0l4.6-14.9l-3.7,0.5l2.3-8.3L227.7,2 M230,0l-2.5,0.3L204,3.2l-1.1,0.1l-0.3,1.1l-2.3,8.3
                l-0.7,2.4l2.5-0.3l1.1-0.1L199.7,26l0,0l-0.3,1.1l-0.4,1.5l-2.1,6.7l-0.7,2.4l0.2,0l0,0l2.5-0.3l8.4-1l15.1-1.8l1.1-0.1l0.3-1.1
                l2.4-8.3l0.7-2.4l-2.5,0.3l-12.3,1.5l0.6-2l7.9-1l1.1-0.1l0.3-1.1l1.5-5.2l0.7-2.4l-2.5,0.3l-6.3,0.8l0.2-0.8l10.1-1.2l1.1-0.1
                l0.3-1.1l2.4-8.3L230,0L230,0z"/>
            <path fill="#1D1D1B" d="M75.3,21.7c3.5,0,6.5,1.3,8.4,4c0.7,0.9,1.2,2.1,1.5,3.4c1.1,4.1-1,8.4-5,11.1c-3,2.3-7.4,3.6-11.7,4.1
                c-1,0.1-2.1,0.2-3.1,0.2c-0.5,0-0.9,0-1.4,0L62,51.4l-8,0.9l6.5-21.2l-7.6,1l2.2-7.7L75.3,21.7 M67.6,36.9c1.3,0,2.8-0.3,4.4-0.7
                c4.1-1.1,6.9-3.7,6.4-5.8c-0.4-1.5-2.2-2.3-4.7-2.3c-1.1,0-2.3,0.1-3.6,0.4c-0.4,0.1-0.8,0.2-1.2,0.3l-2.4,8
                C66.8,36.9,67.2,36.9,67.6,36.9 M75.2,20.1l-0.1,0l-20.2,2.5l-1.1,0.1l-0.3,1.1l-2.2,7.7L50.6,34l2.5-0.3l5-0.6l-5.7,18.7l-0.7,2.4
                l2.5-0.3l8-0.9l1.1-0.1l0.3-1l1.7-5.7c0,0,0.1,0,0.1,0c1.1,0,2.2-0.1,3.3-0.2c3.6-0.5,8.7-1.6,12.4-4.4c4.7-3.2,6.9-8.2,5.7-12.9
                c-0.4-1.5-1-2.8-1.8-3.9c-2.1-3-5.5-4.6-9.8-4.7L75.2,20.1L75.2,20.1z M70.2,30.3c0.1,0,0.2,0,0.2-0.1c1.2-0.3,2.2-0.4,3.2-0.4
                c1.9,0,2.9,0.5,3.1,1c0.2,0.8-1.6,2.8-5.2,3.7c-1.1,0.3-2,0.5-2.9,0.6L70.2,30.3L70.2,30.3z"/>
            <path fill="#1D1D1B" d="M180.1,17.5c-0.4-1.6-1-3-1.9-4.1c-2.2-3.1-5.7-4.8-10.3-4.9l-0.1,0l-0.1,0l-13.2,1.7l-8.2,1l-1.1,0.1
                l-0.3,1.1l-2.3,8.2l-0.1,0.3c0.6,0.5,0.9,1.2,1.3,1.9l0.6-0.1l5.5-0.7l-6.1,19.9l-0.7,2.4l2.5-0.3l8.5-0.9l1.1-0.1l0.3-1l1.9-6.1
                c0.1,0,0.1,0,0.2,0c1.2,0,2.3-0.1,3.5-0.2c3.8-0.5,9.2-1.7,13.1-4.6C179,27.7,181.4,22.4,180.1,17.5z M173.1,29.7
                c-3.2,2.4-7.8,3.8-12.4,4.3c-1.1,0.1-2.2,0.2-3.3,0.2c-0.5,0-1,0-1.4,0l-2.2,7.3l-8.5,0.9l6.9-22.4l-8,1l2.3-8.2l8.2-1l13.2-1.7
                c3.7,0,6.9,1.4,8.9,4.2c0.7,1,1.3,2.2,1.6,3.6C179.6,22.3,177.3,26.8,173.1,29.7z"/>
            <path fill="#1D1D1B" d="M166.2,16.9c-1.1,0-2.4,0.1-3.8,0.4c-0.4,0.1-0.9,0.2-1.3,0.3l-2.6,8.4c0.4,0.1,0.8,0.1,1.2,0.1
                c1.4,0,3-0.3,4.7-0.7c4.3-1.1,7.3-3.9,6.7-6.1C170.7,17.8,168.8,16.9,166.2,16.9z M164,23.8c-1.2,0.3-2.3,0.5-3.2,0.6l1.6-5.4
                c0.1,0,0.2,0,0.3-0.1c1.2-0.3,2.4-0.4,3.4-0.4c1.8,0,3.2,0.5,3.3,1.2C169.7,20.6,168,22.8,164,23.8z"/>
            <path fill="#1D1D1B" d="M130.8,14.9c4.2,0,8.3,1.8,11,5.2c4.9,6.2,3.2,15.4-3.5,20.9c-2.5,2-6.1,3.1-9.8,3.1
                c-4.4,0-8.9-1.5-11.3-4.7c-4.8-6.3-3.3-15.6,3.5-20.9C123.7,16.1,127.3,14.9,130.8,14.9 M128.1,35.5c1.8,0,3.8-0.6,5.1-1.7
                c3.1-2.5,3.9-6.6,2.1-9c-0.9-1.1-2.6-1.8-4.4-1.8c-1.6,0-3.3,0.5-4.7,1.6c-3.2,2.5-4.3,6.5-2.3,9.2C124.8,35,126.4,35.5,128.1,35.5
                 M130.8,13.3c-4,0-7.9,1.4-11.2,3.9c-7.4,5.8-9.1,16.2-3.8,23.2c2.5,3.4,7.3,5.4,12.6,5.4c4.2,0,8.2-1.3,10.9-3.5
                c7.5-6.2,9.1-16.4,3.7-23.2C140.2,15.4,135.7,13.3,130.8,13.3L130.8,13.3z M128.1,33.9c-1.3,0-2.4-0.4-2.9-1.1
                c-1.4-1.9-0.5-4.9,2-6.8c1-0.8,2.3-1.3,3.7-1.3c1.5,0,2.7,0.6,3.1,1.2c1.3,1.7,0.5,4.8-1.8,6.7C131.1,33.4,129.6,33.9,128.1,33.9
                L128.1,33.9z"/>
            <path fill="#1D1D1B" d="M30,19.7c6.3,0,12.3,2.6,16.3,7.6c0.5,0.7,1,1.4,1.5,2.2l-11.9,4c-1.4-1.2-3.5-1.9-5.8-1.9
                c-2.3,0-4.8,0.7-7,2.4c-4.7,3.7-6.4,9.6-3.4,13.6c1.3,1.7,3.7,2.5,6.2,2.5c2.7,0,5.6-0.9,7.6-2.5c0.7-0.6,1.4-1.3,1.9-2l13.7,0.8
                c-1.4,4.4-4.2,8.5-8.1,11.7c-3.7,3-9.1,4.6-14.5,4.6c-6.6,0-13.2-2.3-16.7-6.9C2.8,46.6,5,32.8,15,25C19.6,21.4,24.9,19.7,30,19.7
                 M30,18c-5.7,0-11.4,2-16,5.6c-5.2,4.1-8.6,9.7-9.6,16c-1,6.3,0.4,12.4,4.2,17.3c3.6,4.8,10.4,7.6,18,7.6c6.1,0,11.8-1.8,15.6-5
                c4.1-3.3,7.1-7.7,8.6-12.5l0.7-2.1l-2.2-0.1L35.6,44l-0.9-0.1l-0.5,0.7c-0.5,0.6-1.1,1.2-1.7,1.7c-1.6,1.3-4.1,2.1-6.5,2.1
                c-2.2,0-4-0.7-4.9-1.9c-2.4-3.1-1-8,3.1-11.2c1.7-1.3,3.8-2,5.9-2c1.9,0,3.6,0.5,4.7,1.5l0.7,0.6l0.9-0.3l11.9-4l1.9-0.7l-1-1.8
                c-0.5-0.9-1-1.7-1.6-2.4C43.5,21,37,18,30,18L30,18z"/>
        </g>
    </symbol>
</svg>
